# xmcd
# 
# Track frame offsets:
#     150
#     45269
#     72157
#     110260
#     146381
#     175373
#     224684
# 
# Disc length: 3394
# 
# Revision: 3
# Processed by: cddbd v1.5.2PL0 Copyright (c) Steve Scherf et al.
# Submitted via: BonkEnc v1.0.6
# 
DISCID=610d4007
DTITLE=Deva Premal - Love Is Space
DYEAR=2000
DGENRE=Meditative
TTITLE0=Om Shree Sache
TTITLE1=Chidananda
TTITLE2=Om Mani Padme Hum
TTITLE3=Ide Were Were
TTITLE4=Jai Radha Madhav
TTITLE5=Gate Gate
TTITLE6=Om Namo Narayanaya
EXTD=
EXTT0=
EXTT1=
EXTT2=
EXTT3=
EXTT4=
EXTT5=
EXTT6=
PLAYORDER=
